<svg width="22" height="27" viewBox="0 0 22 27" fill="none" xmlns="http://www.w3.org/2000/svg">
<path d="M15.061 17.2806L10.5625 22.1251L6.06401 17.2806C2.69249 17.438 0 20.4087 0 24.0751V24.5626C0 25.9083 1.01381 27.0001 2.26339 27.0001H18.8616C20.1112 27.0001 21.125 25.9083 21.125 24.5626V24.0751C21.125 20.4087 18.4325 17.438 15.061 17.2806ZM0.641295 5.05246L0.94308 5.12863V8.09425C0.613002 8.30754 0.377232 8.67824 0.377232 9.12511C0.377232 9.55168 0.594141 9.90715 0.900642 10.1255L0.165039 13.2892C0.0848772 13.6396 0.264063 14.0001 0.52341 14.0001H2.49445C2.75379 14.0001 2.93298 13.6396 2.85282 13.2892L2.11722 10.1255C2.42372 9.90715 2.64062 9.55168 2.64062 9.12511C2.64062 8.67824 2.40485 8.30754 2.07478 8.09425V5.42316L5.18694 6.23058C4.78142 7.10402 4.52679 8.07902 4.52679 9.12511C4.52679 12.7154 7.22871 15.6251 10.5625 15.6251C13.8963 15.6251 16.5982 12.7154 16.5982 9.12511C16.5982 8.07902 16.3483 7.10402 15.9381 6.23058L20.479 5.05246C21.3372 4.82902 21.3372 3.67628 20.479 3.45285L11.5009 1.11691C10.8879 0.959485 10.2419 0.959485 9.62885 1.11691L0.641295 3.44777C-0.212193 3.67121 -0.212193 4.82902 0.641295 5.05246Z" fill="white"/>
</svg>
