<svg width="32" height="26" viewBox="0 0 32 26" fill="none" xmlns="http://www.w3.org/2000/svg">
<path d="M10.4001 17.875C10.2806 17.875 10.1611 17.8928 10.0471 17.9303C9.39906 18.1441 8.71756 18.2812 8.00006 18.2812C7.28256 18.2812 6.60106 18.1441 5.95257 17.9303C5.83857 17.8928 5.71957 17.875 5.60007 17.875C2.49707 17.875 -0.0164192 20.4384 8.07737e-05 23.594C0.00708076 24.9275 1.08658 26 2.40007 26H13.6C14.9135 26 15.993 24.9275 16 23.594C16.0165 20.4384 13.503 17.875 10.4001 17.875ZM8.00006 16.25C10.6511 16.25 12.8 14.0674 12.8 11.375C12.8 8.68258 10.6511 6.5 8.00006 6.5C5.34907 6.5 3.20007 8.68258 3.20007 11.375C3.20007 14.0674 5.34907 16.25 8.00006 16.25ZM29.6 0H10.4001C9.07656 0 8.00006 1.12988 8.00006 2.51824V4.875C9.17106 4.875 10.2551 5.2193 11.2001 5.77891V3.25H28.8V17.875H25.6V14.625H19.2V17.875H15.388C16.343 18.7225 17.044 19.8418 17.3725 21.125H29.6C30.9235 21.125 32 19.9951 32 18.6068V2.51824C32 1.12988 30.9235 0 29.6 0Z" fill="white"/>
</svg>
